<svg xmlns="http://www.w3.org/2000/svg" viewBox="0 0 181.38 181.38"><defs><style>.cls-1{fill:#56bbaf;opacity:0.5;}</style></defs><title>adaptable</title><g id="Layer_2" data-name="Layer 2"><path class="cls-1" d="M90.69,0a90.69,90.69,0,1,0,90.69,90.69A90.69,90.69,0,0,0,90.69,0ZM55.51,146.82c-18.22,0-31.71-14.89-32.5-32.5s15.5-32.5,32.5-32.5c18.22,0,31.71,14.89,32.5,32.5S72.51,146.82,55.51,146.82ZM83.62,56.7c-.54-12.15,10.73-22.5,22.5-22.5,12.61,0,22,10.31,22.5,22.5s-10.73,22.5-22.5,22.5C93.5,79.2,84.16,68.89,83.62,56.7Zm42.26,73.57c-16.11,0-16.09-25,0-25S142,130.27,125.87,130.27Z"/></g></svg>