<svg xmlns="http://www.w3.org/2000/svg" viewBox="0 0 181.38 181.38"><defs><style>.cls-1{fill:#56bbaf;opacity:0.5;}.cls-2{fill:#fafbfb;}</style></defs><title>auto-save</title><g id="Layer_2" data-name="Layer 2"><path class="cls-1" d="M58.26,59.37c-1-2-3.23-1.52-5-.54-4.62,2.58-3.39,7.91.39,9.82q2.46.2,4.93.35C58.68,66.21,59.3,61.52,58.26,59.37Z"/><path class="cls-1" d="M96.25,77.31a164.54,164.54,0,0,1-27.44,2c.35,10.7,1,21.58.46,32.23a118,118,0,0,1,14.47-.71c4,.06,8.22.2,12.44.67C95.71,100.13,95.6,88.69,96.25,77.31Z"/><path class="cls-1" d="M47.32,127c.05,1.39,4.89-.22,5.35-.47a10.08,10.08,0,0,0,3-2.49C52.89,124.61,47.27,125.84,47.32,127Z"/><path class="cls-1" d="M109,137.67c1.69,1.13,4.25-.48,5-2.07,1.13-2.27-.15-5.19-1.52-7a13.68,13.68,0,0,0-5.71-4.29c.13,2.4.26,4.81.48,7.21C107.45,133.07,107.45,136.62,109,137.67Z"/><path class="cls-1" d="M125.81,49.3c-.25-5.4-5-7.2-9.61-4.93-5.24,2.58-7.06,8.7-8,14-.39,2.13-.72,4.28-1,6.45C116.28,62.68,126.24,58.66,125.81,49.3Z"/><path class="cls-1" d="M134.34,86.95c-1.1,2-2.43,1.32-4.62,1.72-1,.19-3.54.25-3,1.57.35.85,6.57,1.26,7.63,1.61l.06,0A4.65,4.65,0,0,1,134.34,86.95Z"/><path class="cls-1" d="M90.69,0a90.69,90.69,0,1,0,90.69,90.69A90.69,90.69,0,0,0,90.69,0ZM124,137.07c-1.64,7.19-9.52,12.41-16.81,10.58-9.15-2.3-9.68-12.35-10.18-20.06q-.19-2.88-.35-5.77a105.74,105.74,0,0,0-29,0c-1.73,5.67-5,10.72-10.54,13.67-6.58,3.49-16.94,2.37-19.44-5.8-2.79-9.12,7.07-13.13,14-14.91q3.72-1,7.51-1.69c0-.28,0-.56.06-.84.64-11,0-22.15-.37-33.22l-.34,0a5.12,5.12,0,0,1-1.91.35,16.43,16.43,0,0,1-5.29-.91l-1.48-.14A5.12,5.12,0,0,1,45.51,75a15,15,0,0,1-5.06-14.17c1.69-8.67,11.13-14.74,19.71-12.27C68.91,51.1,69,61,68.77,69.27a160.81,160.81,0,0,0,28.31-2.49c.25-2.44.53-4.88.86-7.31,1.18-8.61,3.9-17.57,11.48-22.67,6.3-4.24,15.42-5,21.3.44,5.65,5.27,6.25,13.88,3.34,20.71-3.39,8-11.27,12.37-19.16,14.92-2.84.92-5.74,1.72-8.67,2.43-.46,8-.42,16.1-.33,24,.05,4.74.2,9.48.4,14.22a35.64,35.64,0,0,1,7.12,2.93C120.57,120.39,126,128.67,124,137.07ZM143,92a4.41,4.41,0,0,1-4.15,2.45,13.56,13.56,0,0,1,4,9.42c.8,14.49-20.38,9.81-27.76,4.81-5.3-3.59-.29-12.25,5-8.63a18.08,18.08,0,0,0,11.45,3.48c.35,0,.69-.06,1-.1a3.4,3.4,0,0,1,0-1,12.24,12.24,0,0,0-4.66-1.73c-6.44-1.13-13.7-5.18-11.62-13,2-7.37,10.73-9.61,17.48-9.45C141,78.43,146.81,85.08,143,92Z"/><path class="cls-2" d="M56.62,69.35a5.13,5.13,0,0,1,2,.38c0-.22,0-.47,0-.73q-2.47-.14-4.93-.35A6.59,6.59,0,0,0,56.62,69.35Z"/><path class="cls-2" d="M56.62,79.35A5.12,5.12,0,0,0,58.54,79q-3.63-.22-7.21-.57A16.43,16.43,0,0,0,56.62,79.35Z"/><path class="cls-2" d="M49.85,78.3l1.48.14A17.32,17.32,0,0,1,45.51,75,5.12,5.12,0,0,0,49.85,78.3Z"/><path class="cls-2" d="M58.54,79l.34,0v-.16Z"/><path class="cls-2" d="M134.63,103a12.76,12.76,0,0,1-2,.38C132.78,104.24,133.46,104.12,134.63,103Z"/><path class="cls-2" d="M138.83,94.44a11.94,11.94,0,0,0-4.42-2.58A5.64,5.64,0,0,0,138.83,94.44Z"/></g></svg>