<svg id="Layer_1" data-name="Layer 1" xmlns="http://www.w3.org/2000/svg" viewBox="0 0 153.28 15.35"><defs><style>.cls-1{fill:#fff;}</style></defs><title>cinemastitch</title><path class="cls-1" d="M14.69,15.33a.74.74,0,0,1-.74-.74L13.87,8a.74.74,0,0,1,.74-.75h0a.74.74,0,0,1,.74.74l.07,6.55a.74.74,0,0,1-.74.75Z"/><path class="cls-1" d="M70.2,15a1.78,1.78,0,0,1-.83-.21,2.6,2.6,0,0,1-1.24-2.31,3.77,3.77,0,0,1,.26-1.31A3.06,3.06,0,0,1,70.78,9a2.43,2.43,0,0,1,2.28,1.25,1.75,1.75,0,0,1,.49.49,5.3,5.3,0,0,0,3,2.22.74.74,0,0,1-.32,1.45,6.36,6.36,0,0,1-3.39-2.18A4,4,0,0,1,71,14.81,1.9,1.9,0,0,1,70.2,15Zm.8-4.55h-.06c-.44,0-.89.52-1.15,1.24a2.32,2.32,0,0,0-.17.79,1.15,1.15,0,0,0,.44,1,.32.32,0,0,0,.33,0,2.86,2.86,0,0,0,1.11-2,3.51,3.51,0,0,1,.15-.63A.9.9,0,0,0,71,10.47Z"/><path class="cls-1" d="M136.14,15.15a3.39,3.39,0,0,1-.51,0,2.21,2.21,0,0,1-1.44-.8,3.1,3.1,0,0,1-.61-2.1,3.69,3.69,0,0,1,.64-1.77,6.17,6.17,0,0,1,3.73-2.9.74.74,0,1,1,.3,1.46,4.73,4.73,0,0,0-2.79,2.25,2.27,2.27,0,0,0-.41,1.07,1.64,1.64,0,0,0,.28,1.06.74.74,0,0,0,.52.27,2.68,2.68,0,0,0,2.42-1.19.74.74,0,0,1,1.15.94A4.34,4.34,0,0,1,136.14,15.15Z"/><path class="cls-1" d="M4.91,15.35a7.54,7.54,0,0,1-3.47-.87,2.39,2.39,0,0,1-1.23-1.3A4.67,4.67,0,0,1,.05,11,6.65,6.65,0,0,1,2.61,6.33a5.16,5.16,0,0,1,3.85-.59A.74.74,0,1,1,6.2,7.2a3.58,3.58,0,0,0-2.78.37,5.15,5.15,0,0,0-1.9,3.65,3.23,3.23,0,0,0,.08,1.43.92.92,0,0,0,.52.51,5.87,5.87,0,0,0,4.24.51.74.74,0,1,1,.38,1.44A7.14,7.14,0,0,1,4.91,15.35Z"/><path class="cls-1" d="M24.05,15.26a.74.74,0,0,1-.74-.64,7.9,7.9,0,0,1,.43-3.68,9,9,0,0,1,1.52-2.59,2,2,0,0,1,1.56-.93,1.26,1.26,0,0,1,1,.59,3.76,3.76,0,0,1,.46,1.7l.47,4.38a.74.74,0,1,1-1.48.16l-.47-4.38A5.39,5.39,0,0,0,26.67,9a2.32,2.32,0,0,0-.25.26,7.54,7.54,0,0,0-1.28,2.17,6.36,6.36,0,0,0-.35,3,.74.74,0,0,1-.64.84Z"/><path class="cls-1" d="M39.11,15.28A5,5,0,0,1,37.37,15a2.5,2.5,0,0,1-1.65-2.11,4.56,4.56,0,0,1,.12-1.54A6.73,6.73,0,0,1,38.3,7.12a1.7,1.7,0,0,1,2-.14,2.54,2.54,0,0,1,.92,2.36A2.7,2.7,0,0,1,40.36,11a2.56,2.56,0,0,1-2.58.71.74.74,0,0,1-.42-.33l-.07.28a3.25,3.25,0,0,0-.1,1,1,1,0,0,0,.69.89,3.53,3.53,0,0,0,2.86-.18.74.74,0,0,1,.67,1.33A5.14,5.14,0,0,1,39.11,15.28Zm-1.11-5a.75.75,0,0,1,.22,0,1.12,1.12,0,0,0,1.1-.36,1.21,1.21,0,0,0,.38-.74,1.23,1.23,0,0,0-.25-.93s-.16,0-.34.13a4.27,4.27,0,0,0-1.4,1.92A.75.75,0,0,1,38,10.23Z"/><path class="cls-1" d="M50.23,15.35h-.11a.74.74,0,0,1-.63-.85A8.71,8.71,0,0,1,51.42,10a2.1,2.1,0,0,1,1.46-.78,1.32,1.32,0,0,1,1,.44,2.45,2.45,0,0,1,.57,1.07,8.64,8.64,0,0,1,1-1.28,2.25,2.25,0,0,1,1.59-.8,1.44,1.44,0,0,1,1,.48,4,4,0,0,1,.81,2.4c0,.28,0,.56.05.84a11.55,11.55,0,0,0,.12,1.38.74.74,0,0,1-1.46.26,12.65,12.65,0,0,1-.14-1.56c0-.27,0-.53,0-.79a2.94,2.94,0,0,0-.4-1.51s-.16,0-.5.35a9.31,9.31,0,0,0-2,3.18.74.74,0,0,1-1.44-.3c.09-2-.17-2.52-.33-2.69a3.66,3.66,0,0,0-.34.3A7.33,7.33,0,0,0,51,14.72.74.74,0,0,1,50.23,15.35Z"/><path class="cls-1" d="M89.38,15.31a4,4,0,0,1-3.13-1.79.74.74,0,1,1,1.19-.89,2.26,2.26,0,0,0,2.46,1.11,1.56,1.56,0,0,0-.07-1.25,4.23,4.23,0,0,0-1.43-1.69A6.27,6.27,0,0,1,86.77,9a.75.75,0,0,1,0-.8A3.48,3.48,0,0,1,89,6.71a2.7,2.7,0,0,1,2.07.52.74.74,0,0,1-.88,1.2,1.23,1.23,0,0,0-.95-.25,1.73,1.73,0,0,0-.92.53,6.3,6.3,0,0,0,1,.94,5.64,5.64,0,0,1,1.86,2.26,3.15,3.15,0,0,1,0,2.56,1.49,1.49,0,0,1-.87.68A3.12,3.12,0,0,1,89.38,15.31Z"/><path class="cls-1" d="M104.24,14.7a.74.74,0,0,1-.74-.69l-1-13.08A.74.74,0,0,1,104,.82l1,13.08a.74.74,0,0,1-.68.8Z"/><path class="cls-1" d="M105.93,9.75h-.14a11.66,11.66,0,0,0-3.1-.18.74.74,0,1,1-.11-1.48,13.12,13.12,0,0,1,3.5.2.74.74,0,0,1-.14,1.47Z"/><path class="cls-1" d="M124.36,14.76a.74.74,0,0,1-.74-.74L123.5.82a.74.74,0,0,1,1.49,0l.12,13.2a.74.74,0,0,1-.74.75Z"/><path class="cls-1" d="M125.89,7.69l-.18,0a9.65,9.65,0,0,0-3-.21.81.81,0,0,1-.15-1.62,11.25,11.25,0,0,1,3.55.25.81.81,0,0,1-.18,1.6Z"/><path class="cls-1" d="M114.91,15.27h0a.74.74,0,0,1-.73-.76c0-1.67,0-3.35-.06-5a.74.74,0,1,1,1.49-.06c.07,1.68.09,3.4.06,5.09A.74.74,0,0,1,114.91,15.27Z"/><path class="cls-1" d="M147.39,14.83a.75.75,0,0,1-.74-.68c-.37-4.42-.62-8.92-.73-13.39a.74.74,0,0,1,.72-.76.76.76,0,0,1,.76.72c.1,3.74.29,7.51.56,11.23.1-.16.21-.32.32-.47,1.27-1.78,2.44-1.27,2.77-1.08a4.1,4.1,0,0,1,1.34,1.91,5,5,0,0,0,.68,1.21.74.74,0,1,1-1.08,1,5.88,5.88,0,0,1-1-1.62,3.65,3.65,0,0,0-.75-1.26c-.09,0-.43.15-.8.67-.18.25-.34.52-.51.79a8,8,0,0,1-1.07,1.48A.74.74,0,0,1,147.39,14.83Z"/></svg>