<svg id="Layer_1" data-name="Layer 1" xmlns="http://www.w3.org/2000/svg" viewBox="0 0 300.19 241.18"><defs><style>.cls-1{fill:#231f20;}.cls-2{fill:#fff;}.cls-3{fill:#d1d3d4;}.cls-4{fill:#e6e7e8;}.cls-5{fill:#bcbec0;}.cls-6{fill:#939598;}</style></defs><title>comp</title><rect class="cls-1" width="300.19" height="199.25" rx="11.09" ry="11.09"/><rect class="cls-2" x="12.06" y="11.3" width="276.08" height="152.95"/><path class="cls-3" d="M0,175H300.19a0,0,0,0,1,0,0v22.07a8.78,8.78,0,0,1-8.78,8.78H10.73A10.73,10.73,0,0,1,0,195.12V175A0,0,0,0,1,0,175Z"/><rect class="cls-4" x="116.88" y="205.86" width="66.43" height="14.56"/><path class="cls-5" d="M202.89,241.18h-86V220.41h66.43l21.38,15.12A3.11,3.11,0,0,1,202.89,241.18Z"/><path class="cls-5" d="M97.3,241.18h86V220.41H116.88L95.5,235.53A3.11,3.11,0,0,0,97.3,241.18Z"/><rect class="cls-4" x="20.95" y="20.03" width="144.35" height="75.56" rx="12" ry="12"/><rect class="cls-6" x="178.85" y="20.03" width="99.01" height="75.56"/><rect class="cls-6" x="20.95" y="107.58" width="144.35" height="11.46"/><rect class="cls-6" x="20.95" y="125.82" width="144.35" height="11.46"/><rect class="cls-6" x="20.95" y="144.06" width="144.35" height="11.46"/><polygon class="cls-6" points="85.15 49.73 85.15 70.58 104.95 60.16 85.15 49.73"/><rect class="cls-4" x="178.85" y="107.58" width="99.01" height="47.94" rx="12" ry="12"/><circle cx="149.41" cy="191.26" r="7.99"/></svg>