<svg xmlns="http://www.w3.org/2000/svg" viewBox="0 0 747.74 412.75"><defs><style>.cls-1,.cls-6,.cls-9{fill:none;}.cls-1{stroke:#56baaf;stroke-width:11px;opacity:0.45;}.cls-1,.cls-9{stroke-linecap:round;stroke-linejoin:round;}.cls-11,.cls-13,.cls-2{fill:#6063ad;}.cls-11,.cls-12,.cls-2{opacity:0.66;}.cls-3{fill:#fff;}.cls-4{fill:#e6e7e8;}.cls-5{fill:#939598;}.cls-6{stroke:#231f20;stroke-miterlimit:10;stroke-width:7.06px;}.cls-7{fill:#bcbec0;}.cls-8{fill:#d1d3d4;}.cls-9{stroke:#e8a097;stroke-width:7px;}.cls-10{fill:#58595b;}.cls-11{font-size:53.22px;font-family:MyriadPro-Regular, Myriad Pro;}</style></defs><title>crazy-comp</title><g id="Layer_2" data-name="Layer 2"><path class="cls-1" d="M665.49,142.94h-227s15.38-49.33,61.74-49.33c0,0,18.11-40.45,70.07-40.45s67.1,36.51,67.1,36.51,81.08-6.91,104.86,53.28Z"/><path class="cls-2" d="M252.37,37.27A12.9,12.9,0,0,0,254,39.61c5.61-6.52,8,13.62,9.79,16.48,4.24,6.91,10.65.81,14.46-3.5,3.42-3.86,14.28-17.73,6.52-22.83-5.31-3.49-11.19,3.39-12.52,7.56,9-3.89,2.19,18.07-2.82,7.64-1.84-3.83-.06-11.44-4-14.32C261.29,27.54,255.31,34.77,252.37,37.27Z"/><path d="M236.5,159.89H559.13a12.33,12.33,0,0,1,12.33,12.33V372.79a0,0,0,0,1,0,0H224.29a.12.12,0,0,1-.12-.12V172.22A12.33,12.33,0,0,1,236.5,159.89Z"/><rect class="cls-3" x="238.12" y="172.97" width="319.39" height="183.14"/><rect class="cls-4" x="261.33" y="189.88" width="152.49" height="79.82" rx="12.68" ry="12.68"/><rect class="cls-5" x="428.13" y="189.88" width="104.6" height="79.82"/><rect class="cls-5" x="261.33" y="282.36" width="152.49" height="12.11"/><rect class="cls-5" x="261.33" y="301.63" width="152.49" height="12.11"/><rect class="cls-5" x="261.33" y="320.89" width="152.49" height="12.11"/><polygon class="cls-5" points="329.14 221.25 329.14 243.27 350.06 232.26 329.14 221.25"/><rect class="cls-4" x="428.13" y="282.36" width="104.6" height="50.65" rx="12.68" ry="12.68"/><rect class="cls-6" x="238.12" y="172.97" width="319.39" height="183.14"/><rect class="cls-7" x="178.48" y="395.92" width="433.9" height="16.83" rx="7.5" ry="7.5"/><path class="cls-8" d="M224,371.55,182,397c-1.13.69-.52,2.13.9,2.13H608.32c1.38,0,2-1.38,1-2.09L572,371.91a1.73,1.73,0,0,0-1-.28l-346.23-.33A1.75,1.75,0,0,0,224,371.55Z"/><path class="cls-4" d="M372.65,399.12H423a0,0,0,0,1,0,0v1.71a3.5,3.5,0,0,1-3.5,3.5H375.8a3.15,3.15,0,0,1-3.15-3.15v-2.07A0,0,0,0,1,372.65,399.12Z"/><polyline class="cls-9" points="274.58 256.16 146.16 256.16 146.16 297.68"/><polyline class="cls-9" points="274.58 229.79 45.78 229.79 45.78 275.31"/><line class="cls-9" x1="286.17" y1="201.14" x2="224.18" y2="123.14"/><line class="cls-9" x1="305.71" y1="201.14" x2="276.92" y2="69.26"/><line class="cls-9" x1="324.77" y1="201.14" x2="335.27" y2="98.05"/><polyline class="cls-9" points="548.42 282.36 597.69 282.36 597.69 103.84"/><rect class="cls-10" y="285.51" width="91.56" height="118.84" rx="4.6" ry="4.6"/><rect class="cls-4" x="8.09" y="294.47" width="74.64" height="92.93"/><polygon class="cls-5" points="35.32 329.92 35.32 351.94 56.24 340.93 35.32 329.92"/><circle class="cls-4" cx="45.41" cy="395.89" r="3.13"/><rect class="cls-10" x="122.83" y="304.85" width="49.85" height="80.15" rx="2.79" ry="2.79"/><rect class="cls-4" x="129.01" y="312.13" width="37.01" height="61.84"/><polygon class="cls-5" points="140.7 334.81 140.7 349.66 154.81 342.23 140.7 334.81"/><circle class="cls-4" cx="147.75" cy="379.93" r="2.11"/><text class="cls-11" transform="translate(331.32 80.9)">f</text><g class="cls-12"><path class="cls-13" d="M212.71,109.75H196.23a11.5,11.5,0,0,1-11.47-11.47V80.73a11.5,11.5,0,0,1,11.47-11.47h16.48a11.5,11.5,0,0,1,11.47,11.47V98.29A11.5,11.5,0,0,1,212.71,109.75Zm0-3a8.47,8.47,0,0,0,8.44-8.44V80.73a8.47,8.47,0,0,0-8.44-8.44H196.23a8.47,8.47,0,0,0-8.44,8.44V98.29a8.47,8.47,0,0,0,8.44,8.44Z"/><path class="cls-13" d="M215.39,89.35A10.85,10.85,0,1,1,204.53,78.5,10.85,10.85,0,0,1,215.39,89.35Zm-10.9-7.1a7.11,7.11,0,1,0,7.11,7.11A7.11,7.11,0,0,0,204.48,82.25Z"/><circle class="cls-13" cx="215.56" cy="78.33" r="2.57"/></g></g></svg>