<svg id="Layer_2" data-name="Layer 2" xmlns="http://www.w3.org/2000/svg" viewBox="0 0 62.14 32.24"><defs><style>.cls-1{fill:#fff;}</style></defs><title>cs</title><path class="cls-1" d="M23.43,23.1a26.19,26.19,0,0,1-10.12-2,1,1,0,0,1-.58-.68c-.61-2.41,1.65-4.4,2.39-5.06A22.11,22.11,0,0,1,21.84,11a10,10,0,0,1,8.3.32l.11.06a1,1,0,0,1,.4,1.37,1,1,0,0,1-1.34.39l0,0-.1-.06a8.11,8.11,0,0,0-6.63-.19,20.31,20.31,0,0,0-6.09,4,4.52,4.52,0,0,0-1.81,2.61,24.35,24.35,0,0,0,17.81-.08,1,1,0,0,1,.75,1.86A26.18,26.18,0,0,1,23.43,23.1Z"/><path class="cls-1" d="M25.71,32.24a47.5,47.5,0,0,1-18.9-3.89c-2.23-1-5.33-2.61-6.41-5.61C-1.32,18,2.84,13.6,4.7,11.93,11.52,5.84,21,2.1,33.8.52,40.14-.26,48.31-.69,55.23,3,59.28,5.22,62.94,9.55,62,14.3c-.79,3.94-4.36,6.44-8.11,8.56a1,1,0,0,1-1-1.74C56,19.36,59.37,17.21,60,13.9c.74-3.73-2.46-7.33-5.75-9.11C47.86,1.34,40.09,1.76,34,2.51,21.7,4,12.54,7.61,6,13.42c-1.22,1.09-5.1,4.94-3.76,8.64.82,2.25,3.28,3.56,5.33,4.46a45.75,45.75,0,0,0,33.88.92c2.6-1,4-2.12,4.36-3.54.41-1.73-.93-3.54-2.44-4.56a20.09,20.09,0,0,0-3.15-1.62,27.38,27.38,0,0,1-2.78-1.36A3,3,0,0,1,36,14.66a2.9,2.9,0,0,1,.44-2.21,9.59,9.59,0,0,1,12-3.76,1,1,0,1,1-.85,1.81,7.63,7.63,0,0,0-9.41,3c-.27.47-.25.64-.24.68s.12.22.6.5a25.36,25.36,0,0,0,2.58,1.26,21.88,21.88,0,0,1,3.46,1.79c1.93,1.3,3.95,3.83,3.27,6.68-.75,3.14-4.4,4.5-5.61,4.95A47.36,47.36,0,0,1,25.71,32.24Z"/></svg>