<svg xmlns="http://www.w3.org/2000/svg" viewBox="0 0 181.38 181.38"><defs><style>.cls-1{fill:#56bbaf;opacity:0.5;}</style></defs><title>full-creative-freedom</title><g id="Layer_2" data-name="Layer 2"><path class="cls-1" d="M90.69,0a90.69,90.69,0,1,0,90.69,90.69A90.69,90.69,0,0,0,90.69,0ZM48.41,48.29a4.45,4.45,0,0,1,1.64-2.18,147.12,147.12,0,0,1,51.28-28.73c2.41,21.55-.42,43.31-3.25,64.81l-5.57,42.29-.38,3.64q-22.57-37.79-43-76.83A4.52,4.52,0,0,1,48.41,48.29Zm59.83,106.64a9.82,9.82,0,0,1-6.4,7.78A13.62,13.62,0,0,1,91.53,162,6,6,0,0,1,89,160.14a5.68,5.68,0,0,1-.34-4.88A12.2,12.2,0,0,1,100.78,147l2.19-.25A7.72,7.72,0,0,1,108.24,154.93Z"/></g></svg>