<svg xmlns="http://www.w3.org/2000/svg" viewBox="0 0 119.33 119.33"><defs><style>.cls-1{fill:#fff;}.cls-2{fill:#ec7b65;}</style></defs><title>insta-logo</title><g id="Layer_2" data-name="Layer 2"><circle class="cls-1" cx="59.67" cy="59.67" r="59.67"/><path class="cls-2" d="M77.36,103.13H42A24.69,24.69,0,0,1,17.36,78.52V40.81A24.69,24.69,0,0,1,42,16.2H77.36A24.69,24.69,0,0,1,102,40.81v37.7A24.69,24.69,0,0,1,77.36,103.13Zm0-6.5A18.18,18.18,0,0,0,95.47,78.52V40.81A18.18,18.18,0,0,0,77.36,22.7H42A18.18,18.18,0,0,0,23.86,40.81v37.7A18.18,18.18,0,0,0,42,96.63Z"/><path class="cls-2" d="M83.1,59.33A23.3,23.3,0,1,1,59.8,36,23.3,23.3,0,0,1,83.1,59.33ZM59.68,44.09A15.26,15.26,0,1,0,74.94,59.35,15.26,15.26,0,0,0,59.68,44.09Z"/><circle class="cls-2" cx="83.47" cy="35.67" r="5.52"/></g></svg>