<svg id="Layer_1" data-name="Layer 1" xmlns="http://www.w3.org/2000/svg" viewBox="0 0 166.32 106.56"><defs><style>.cls-1{fill:#ec7b65;}</style></defs><title>learn</title><path class="cls-1" d="M16,106.52c32.77-.21,65.14-6.57,96.38-16.18q12.07-3.71,24-8c6.63-2.38,14.13-4.42,20-8.46,11.6-8,11.72-26.52,7.24-38.56C152.87,6.57,119.59,1.1,92.77.18,63.87-.81,29.84,1.45,11.6,27.4,2.72,40,.24,56,0,71.15c-.2,13.29,1.27,32.79,17.88,35.35,5.24.81,7.5-7.22,2.21-8C6.7,96.41,8,78,8.43,67.93,8.88,56,11,43.8,17.48,33.58,32.3,10.17,63.14,7.77,88.1,8.37c23.47.57,54.55,2.54,66.4,26.77,2.88,5.89,3.51,12.44,3,18.92C157,61.88,154,66.39,146.94,69.51c-12.35,5.44-25.65,9.43-38.55,13.34C78.38,92,47.45,98,16,98.19c-5.36,0-5.37,8.36,0,8.33Z"/><path class="cls-1" d="M14.71,25.4c-2.25,10.7,4.59,23.1,16.93,21.08,5.63-.92,8.52-4.74,11.2-9.41,4.23-7.37,12.4-6.59,19.78-5.53,5.24.76,7.51-7.27,2.21-8-9-1.29-19.3-2.23-26.13,5-2.72,2.89-4,8.79-8.19,9.69-6.19,1.32-8.8-5.69-7.77-10.6,1.1-5.23-6.93-7.47-8-2.21Z"/><path class="cls-1" d="M63.52,47.7c.23-1.71,8.71-1.08,9.81-1.2,3-.34,5.19-1.81,7.44-3.73,4.4-3.77,8.36-8.5,7.78-14.65C88,22.3,84.13,16,79.79,12.21,74.67,7.74,67.72,7.43,62.1,4c-4.57-2.82-8.76,4.38-4.2,7.19S67.66,14.43,72.14,17s10,10,7.26,15.19a16.18,16.18,0,0,1-5.84,5.73c-2.23,1-5.5.24-7.9.59-4.15.6-9.52,2.21-10.17,7-.72,5.24,7.31,7.51,8,2.21Z"/><path class="cls-1" d="M22.55,99.19c-3.07-4.55-3.59-8.09,1.24-11.52,3.33-2.36,7.38-3.52,10.78-5.77,4.9-3.23,8.89-8.46,8.09-14.61C41.16,55.6,25.55,46.35,16.25,55.75c-3.77,3.82,2.11,9.71,5.89,5.89,4.17-4.22,11.65,1.64,12.3,6.49.85,6.35-9.23,9-13.36,11.43-3.84,2.24-7.35,5.42-8.85,9.71-1.81,5.2.21,9.8,3.13,14.12s10.2.25,7.19-4.2Z"/><path class="cls-1" d="M48.73,62c2.92-.22,6.4.23,7.72,3.21S54.83,69.39,52.6,71c-3.29,2.38-6.26,5-7.07,9.17-1.87,9.63,9,12,16.23,11.14,8.66-1,17.32-4,21.92-11.91,4.78-8.21,3.51-18.28-1.9-25.83-3.1-4.32-10.32-.16-7.19,4.2,4.85,6.76,5.54,16.68-2.15,21.8-3.28,2.19-8.41,3.25-12.35,3.59-1.76.15-5.15.65-5.78-1.37s2.25-3.36,3.79-4.49c5-3.66,9.23-8.53,6.54-15C62.1,56.1,55,53.15,48.73,53.63c-5.31.41-5.35,8.74,0,8.33Z"/><path class="cls-1" d="M92.23,55.82c4.16-.4,10.43.5,12.24,5,1.48,3.74-1.94,8.58-1.41,12.67C104.32,83.25,114.83,82.89,122,85c5.15,1.52,7.35-6.51,2.21-8-3.44-1-12.61-.53-12.92-5.36-.14-2.22,1.45-5,1.74-7.28a12.67,12.67,0,0,0-.42-5.6c-2.6-8.28-12.41-12-20.38-11.25-5.29.51-5.34,8.85,0,8.33Z"/><path class="cls-1" d="M107.64,12c-17.89-2.44-20.58,31-1.78,29.5a10.53,10.53,0,0,0,7.91-5c2.11-3.27,2.27-8.54,6.1-10.29,4.87-2.23,11.1,1.23,15.92,2.14a19.68,19.68,0,0,0,13.32-1.65c4.76-2.46.55-9.65-4.2-7.19-6.07,3.14-13.48-1.53-19.72-2.14-4.56-.44-9.42.63-12.77,3.89a15.45,15.45,0,0,0-3.27,5.11c-.76,1.74-1.38,5.6-3.18,6.6-2.73,1.52-4.76-2.2-5-4.32s1.42-9,4.42-8.59c5.24.72,7.51-7.31,2.21-8Z"/><path class="cls-1" d="M136.5,60.57c-5.48,1.78-11.65-3.07-12.76-8.35-.49-2.31-.91-6,.55-8.08,1.83-2.59,5.5-2.15,8-1.07,5.2,2.2,8.68,7.5,13,10.93,4.19,3.32,8.84,5.47,14.26,5.16s5.36-8.64,0-8.33c-9.76.56-14.93-11-22.93-14.92-6.33-3.13-14.89-2.83-19.17,3.46-9.07,13.33,5.57,34.31,21.21,29.23,5.08-1.65,2.9-9.69-2.21-8Z"/></svg>