<svg id="Layer_1" data-name="Layer 1" xmlns="http://www.w3.org/2000/svg" viewBox="0 0 160.84 97.9"><defs><style>.cls-1{fill:#56baaf;}</style></defs><title>pricing</title><path class="cls-1" d="M146.42,97.9h-132A14.43,14.43,0,0,1,0,83.48V14.42A14.43,14.43,0,0,1,14.42,0h132a14.43,14.43,0,0,1,14.42,14.42V83.48A14.43,14.43,0,0,1,146.42,97.9ZM14.42,11A3.42,3.42,0,0,0,11,14.42V83.48a3.42,3.42,0,0,0,3.42,3.42h132a3.42,3.42,0,0,0,3.42-3.42V14.42A3.42,3.42,0,0,0,146.42,11Z"/><circle class="cls-1" cx="80.42" cy="48.95" r="21.03"/></svg>