<svg id="Layer_1" data-name="Layer 1" xmlns="http://www.w3.org/2000/svg" viewBox="0 0 171.03 97.9"><defs><style>.cls-1{fill:#6063ad;}</style></defs><title>product</title><path class="cls-1" d="M160,81.94a11.62,11.62,0,0,1-4.78-1L116.35,63.38V34.52L155.2,17a11.5,11.5,0,0,1,11,.81A10.31,10.31,0,0,1,171,26.45v45a10.31,10.31,0,0,1-4.82,8.65A11.46,11.46,0,0,1,160,81.94ZM127.35,56.27l32.38,14.6a.58.58,0,0,0,.31,0V27a.56.56,0,0,0-.31,0l-32.38,14.6Z"/><path class="cls-1" d="M102.28,97.9H25.07A25.1,25.1,0,0,1,0,72.83V25.07A25.1,25.1,0,0,1,25.07,0h77.21a25.1,25.1,0,0,1,25.07,25.07V72.83A25.1,25.1,0,0,1,102.28,97.9ZM25.07,11A14.08,14.08,0,0,0,11,25.07V72.83A14.08,14.08,0,0,0,25.07,86.9h77.21a14.08,14.08,0,0,0,14.07-14.07V25.07A14.08,14.08,0,0,0,102.28,11Z"/></svg>