<svg xmlns="http://www.w3.org/2000/svg" viewBox="0 0 181.38 181.38"><defs><style>.cls-1{fill:#56bbaf;opacity:0.5;}</style></defs><title>simple</title><g id="Layer_2" data-name="Layer 2"><path class="cls-1" d="M90.69,0a90.69,90.69,0,1,0,90.69,90.69A90.69,90.69,0,0,0,90.69,0ZM67.5,147.08c-2.7,4.5-7.05,9.71-12,8.1-2.25-.73-3.82-2.72-5.15-4.67a68.72,68.72,0,0,1-11.71-33.79l.45.59c1.3-2.87,5.64-.84,7.8,1.45L57,129.5a7.8,7.8,0,0,0,3.83,2.67c3.3.66,5.77-2.86,7.31-5.85a305.86,305.86,0,0,1,57.93-78.12c4.77-4.65,10.12-9.36,16.71-10.35A1064.42,1064.42,0,0,0,67.5,147.08Z"/></g></svg>